<svg viewBox="0 0 10 10" fill="none" xmlns="http://www.w3.org/2000/svg"><path d="M.275 8.975A.711.711 0 01.07 8.45c0-.213.069-.388.206-.525L3.181 5 .275 2.075a.732.732 0 01-.215-.516.696.696 0 01.215-.534A.711.711 0 01.8.818c.213 0 .388.07.525.207l3.45 3.45a.662.662 0 01.16.243.836.836 0 01.046.282c0 .1-.015.193-.046.28a.662.662 0 01-.16.245l-3.45 3.45a.732.732 0 01-.516.215.696.696 0 01-.534-.215zm4.95 0a.711.711 0 01-.206-.525c0-.213.069-.388.206-.525L8.131 5 5.225 2.075a.735.735 0 01-.216-.516.699.699 0 01.216-.534.711.711 0 01.525-.207c.213 0 .388.07.525.207l3.45 3.45a.654.654 0 01.16.243A.824.824 0 019.93 5c0 .1-.015.193-.047.28a.654.654 0 01-.159.245l-3.45 3.45a.731.731 0 01-.515.215.697.697 0 01-.535-.215z" fill="#033C48"/></svg>