<svg width="225" height="761" viewBox="0 0 225 761" fill="none" xmlns="http://www.w3.org/2000/svg">
    <path d="M215.429 465.621C214.621 461.206 214.023 458.323 213.844 457.403C213.814 457.219 213.784 457.097 213.784 457.066L212.618 451.455L211.84 447.806L210.315 451.455L208.222 456.514C207.055 459.335 205.859 462.156 204.603 464.977C198.563 478.776 190.668 494.383 174.161 515.173C171.858 518.086 169.376 521.06 166.835 524.065C165.878 525.2 164.891 526.334 163.904 527.469C159.508 532.406 154.484 537.802 148.533 543.904L145.842 546.664C132.953 559.88 123.743 569.324 116.955 577.48C115.34 579.443 113.845 581.313 112.469 583.153C111.093 581.313 109.628 579.443 107.983 577.48C101.165 569.293 91.895 559.788 78.9167 546.511L76.3748 543.904C38.1276 504.655 28.4088 489.078 28.4088 437.472C28.4088 430.696 28.6779 423.183 29.2162 415.057C37.679 425.851 47.4876 436.246 56.2495 445.23L59.0903 448.143C65.2505 454.46 70.693 460.04 75.3282 464.977C77.0626 466.848 78.7672 468.749 80.5016 470.711H80.4717L81.4585 471.815C89.7121 481.29 97.6366 491.501 103.468 500.485C108.043 507.538 111.333 513.824 112.469 518.393C113.725 513.333 117.672 506.127 123.055 498.124C130.531 487.055 140.818 474.452 150.806 463.781C157.056 457.25 168.539 445.475 168.659 445.353C212.289 400.646 224.968 378.538 224.968 318.284C224.968 309.637 224.579 300.132 223.802 289.89L223.921 290.074L222.905 279.311C220.841 257.694 217.342 237.333 215.458 227.153C214.651 222.707 214.053 219.855 213.874 218.935C213.844 218.751 211.87 209.369 211.87 209.369L208.252 218.077C207.085 220.898 205.889 223.688 204.663 226.509C198.383 240.86 190.1 257.111 172.397 278.974C170.632 281.151 168.778 283.359 166.864 285.597C166.057 286.548 165.25 287.498 164.442 288.418C160.046 293.386 154.843 298.936 148.563 305.406L145.991 308.043C133.043 321.32 123.773 330.795 116.955 338.982C115.31 340.944 113.845 342.815 112.469 344.685C111.093 342.845 109.598 340.944 107.983 338.982C101.165 330.826 91.9548 321.351 79.0064 308.104L76.4048 305.436C38.1575 266.218 28.4387 250.611 28.4387 199.004C28.4387 192.228 28.7079 184.715 29.2461 176.59C37.709 187.383 47.5174 197.778 56.2793 206.731L56.7578 207.222C62.6489 213.263 66.4467 217.157 68.869 219.702C86.004 236.965 105.8 262.232 111.393 276.521C111.871 277.717 112.26 278.851 112.499 279.894C112.768 278.851 113.157 277.686 113.605 276.46C117.702 265.789 129.365 248.525 140.07 233.93C142.194 231.047 144.257 228.288 146.231 225.712C147.128 224.547 150.836 219.733 150.896 219.671C165.04 200.415 179.484 180.238 179.484 138.199C179.484 106.432 156.906 66.5391 137.559 42.0086C136.811 41.058 135.944 39.9541 134.987 38.7276C136.99 34.9253 138.037 30.6632 138.037 26.309C138.037 11.8053 126.524 0 112.379 0C98.2347 0 86.7217 11.8053 86.7217 26.309C86.7217 40.0768 96.8292 51.2689 109.987 52.4954C111.572 55.1018 113.336 57.6468 115.4 60.3145C141.715 94.1667 151.045 123.419 151.045 138.168C151.045 170.917 140.22 185.666 127.69 202.745C125.926 205.137 124.191 207.529 122.457 209.982L121.201 211.76C119.437 214.213 117.583 216.85 115.758 219.641C114.532 221.48 113.336 223.382 112.17 225.405C110.824 223.535 109.329 221.603 107.744 219.641C104.036 215.01 99.6103 210.043 94.1678 204.34C89.8317 199.802 76.5842 186.187 76.4347 186.064C70.8127 180.3 66.2374 175.424 62.2003 170.917C61.692 170.334 61.1836 169.782 60.7051 169.23C57.6549 165.735 54.7244 162.27 52.033 158.927C34.7186 137.433 26.5847 121.365 20.3646 107.199C19.1386 104.378 17.9424 101.587 16.7761 98.7662L16.5668 98.2756L13.1278 90.0579L11.3934 98.2756L11.1841 99.2875C11.1542 99.4101 10.4963 102.507 9.50946 107.812C7.6255 118.023 4.12667 138.352 2.06329 159.847C1.79416 161.748 0 179.84 0 198.912C0 259.166 12.6793 281.274 56.3092 325.981L64.4431 334.321C68.8091 338.798 72.5771 342.723 75.8665 346.188C85.7946 356.981 95.8423 369.522 102.989 380.347C107.834 387.736 111.363 394.329 112.529 399.051C113.605 394.728 116.656 388.81 120.902 382.186C129.694 368.419 143.719 351.493 156.249 338.859H156.129C157.534 337.387 159 335.885 160.585 334.29L168.748 325.919C177.51 316.935 187.319 306.54 195.782 295.716C196.32 303.781 196.589 311.293 196.589 318.131C196.589 369.737 186.87 385.314 148.623 424.563L145.902 427.353C133.073 440.508 123.892 449.922 117.104 458.047C115.459 460.01 113.934 461.911 112.559 463.781C111.183 461.911 109.688 460.01 108.043 458.047C101.225 449.83 91.9249 440.324 78.8867 426.955L76.4645 424.471C70.5734 418.43 65.6393 413.187 61.4527 408.465C61.2733 408.25 61.064 408.036 60.8846 407.821C57.9241 404.417 55.0533 401.014 52.3918 397.733C34.8382 376.054 26.6445 359.833 20.3646 345.575C19.1386 342.754 17.9424 339.963 16.7761 337.142L16.5668 336.652L13.1578 328.434L11.4233 336.652L11.214 337.694C11.1841 337.817 10.5261 340.914 9.5393 346.218C7.65535 356.307 4.21638 376.33 2.153 397.702L2.09323 398.254C0.717642 412.604 0.029842 425.759 0.029842 437.319C0.029842 497.542 12.7092 519.65 56.3392 564.387C56.4887 564.541 67.6129 575.947 74.3114 582.969C76.315 585.116 78.3485 587.354 80.3521 589.623H80.2922L81.4885 590.942C89.7719 600.417 97.7263 610.689 103.558 619.704C108.133 626.726 111.392 633.012 112.529 637.55C113.605 633.257 116.596 627.4 120.782 620.808C128.169 609.217 139.233 595.357 150.058 583.674C154.424 579.044 159.687 573.678 166.147 567.024L168.748 564.357C177.51 555.372 187.319 544.977 195.782 534.184C196.32 542.279 196.589 549.792 196.589 556.599C196.589 606.611 187.558 622.648 151.643 659.873L148.623 663.031C147.995 663.675 133.163 678.884 128.228 684.127C122.876 689.8 114.891 699.49 114.323 700.256C112.23 703.077 110.465 705.837 108.91 708.627C96.3507 710.375 86.7217 721.536 86.7217 734.691C86.7217 749.195 98.2347 761 112.379 761C126.524 761 138.037 749.195 138.037 734.691C138.037 729.877 136.751 725.216 134.329 721.107C135.047 720.187 135.734 719.329 136.332 718.562C138.934 715.312 154.694 698.478 168.569 683.79L168.689 683.667C212.319 638.93 224.998 616.852 224.998 556.599C224.998 545.039 224.31 531.915 222.934 517.565C220.781 496.1 217.312 475.801 215.429 465.621Z" fill="#DBA283"/>
</svg>
