<svg width="21" height="18" viewBox="0 0 21 18" fill="none" xmlns="http://www.w3.org/2000/svg">
<rect y="18" width="18" height="21" rx="2" transform="rotate(-90 0 18)" fill="#033C48"/>
<path d="M6 9C6 8.68704 6.21538 8.43304 6.48075 8.43304H14.3793L11.521 4.97321C11.475 4.92039 11.4384 4.85724 11.4134 4.78749C11.3884 4.71774 11.3756 4.64279 11.3756 4.56707C11.3755 4.49136 11.3884 4.41641 11.4133 4.34664C11.4383 4.27688 11.4748 4.21371 11.5208 4.16088C11.5668 4.10804 11.6213 4.0666 11.6811 4.039C11.7409 4.0114 11.8047 3.99821 11.8689 4.0002C11.9331 4.00218 11.9963 4.01931 12.0548 4.05056C12.1132 4.08182 12.1658 4.12657 12.2094 4.18218L15.862 8.60313C15.9504 8.70888 16 8.85145 16 9C16 9.14855 15.9504 9.29112 15.862 9.39687L12.2094 13.8178C12.1658 13.8734 12.1132 13.9182 12.0548 13.9494C11.9963 13.9807 11.9331 13.9978 11.8689 13.9998C11.8047 14.0018 11.7409 13.9886 11.6811 13.961C11.6213 13.9334 11.5668 13.892 11.5208 13.8391C11.4748 13.7863 11.4383 13.7231 11.4133 13.6534C11.3884 13.5836 11.3755 13.5086 11.3756 13.4329C11.3756 13.3572 11.3884 13.2823 11.4134 13.2125C11.4384 13.1428 11.475 13.0796 11.521 13.0268L14.3793 9.56696H6.48075C6.21538 9.56696 6 9.31296 6 9Z" fill="white"/>
</svg>
