<svg viewBox="0 0 12 15" fill="none" xmlns="http://www.w3.org/2000/svg"><path d="M5.7 7.777c.163-.273.19-1.285-.055-1.285-.055 0-.082.848.054 1.285zm-.028 1.285c-.219.547-.492 1.176-.793 1.696.52-.192 1.066-.465 1.723-.574a3.841 3.841 0 01-.93-1.121zm-2.57 3.418s.355-.164.957-1.12c-.192.19-.82.683-.957 1.12zm4.43-7.355a.632.632 0 01-.657-.656V.75H1.406c-.383 0-.656.3-.656.656v12.688c0 .383.273.656.656.656h9.188a.648.648 0 00.656-.656V5.125H7.531zm-.22 4.703c.52-.055 1.614-.164 1.997.192.328.328.273 1.203-.547 1.203-.438 0-1.149-.22-1.75-.547-.657.11-1.45.41-2.16.656C4.168 12.508 3.676 13 3.184 13c-.137 0-.438-.082-.575-.273-.52-.63.739-1.477 1.477-1.86h.027c.328-.574.793-1.586 1.094-2.351-.219-.875-.355-1.586-.219-2.106.164-.52 1.176-.601 1.313.192.136.492-.055 1.257-.164 1.75.246.683.629 1.148 1.176 1.476zm3.747-6.207L8.379.941C8.242.832 8.079.75 7.914.75H7.75v3.5h3.5v-.164c0-.164-.082-.328-.191-.465zm-2.051 7c.137-.082-.055-.328-1.149-.246 1.012.438 1.149.246 1.149.246z" fill="#F03D3D"/></svg>