<svg width="32" height="32" fill="none" xmlns="http://www.w3.org/2000/svg"><path d="M11.75 9.188c.5-.292 1.02-.271 1.563.062l9 5.5c.458.292.687.708.687 1.25s-.23.98-.688 1.313l-9 5.5c-.541.25-1.062.25-1.562 0-.5-.292-.75-.73-.75-1.313V10.437c0-.541.25-.958.75-1.25zM32 16c-.042 3-.77 5.688-2.188 8.063a15.851 15.851 0 01-5.75 5.75C21.688 31.229 19 31.957 16 32c-3-.042-5.688-.77-8.063-2.188a15.851 15.851 0 01-5.75-5.75C.772 21.688.042 19 0 16c.042-3 .77-5.688 2.188-8.063a15.851 15.851 0 015.75-5.75C10.313.772 13 .042 16 0c3 .042 5.688.77 8.063 2.188a15.851 15.851 0 015.75 5.75C31.229 10.313 31.957 13 32 16zM16 3c-3.667.083-6.73 1.354-9.188 3.813C4.354 9.27 3.083 12.332 3 16c.083 3.667 1.354 6.73 3.813 9.188C9.27 27.645 12.332 28.916 16 29c3.667-.083 6.73-1.354 9.188-3.813C27.645 22.73 28.916 19.668 29 16c-.083-3.667-1.354-6.73-3.813-9.188C22.73 4.354 19.668 3.083 16 3z" fill="#fff"/></svg>